# Wavefront OBJ file
# Exported by Misfit Model 3D 1.3.8
# Mon Jun 09 16:53:11 2014

mtllib tiki_shhhh_bind.mtl

# 82 Vertices
v 0.6218 0.267 -0.3246
v 0.31 0.3781 -0.1546
v 0.5219 0.8956 -0.3519
v 0.2654 0.6411 -0.1546
v 0.5219 0.9141 -0.2173
v 0.2654 0.6411 -0.0584
v 0.6218 0.2855 -0.19
v 0.31 0.3781 -0.0584
v -0.6193 0.2855 -0.19
v -0.3074 0.3781 -0.0584
v -0.5193 0.9141 -0.2173
v -0.2628 0.6411 -0.0584
v -0.5193 0.8956 -0.3519
v -0.2628 0.6411 -0.1546
v -0.6193 0.267 -0.3246
v -0.3074 0.3781 -0.1546
v -0.3689 0.8273 0.3162
v 0.378 0.8273 0.3162
v -0.3689 0.9999 0.3032
v 0.378 0.9999 0.3032
v -0.3689 0.9999 -0.3843
v 0.378 0.9999 -0.3843
v -0.3689 0.7313 -0.3843
v 0.378 0.7313 -0.3843
v -0.268 0.6852 -0.3026
v 0.2771 0.6852 -0.3026
v 0.2731 0.7118 0.2248
v -0.264 0.7118 0.2248
v 0.3134 0.3977 0.3255
v -0.3134 0.3977 0.3255
v 0.5041 0.2044 0.5223
v -0.5041 0.2044 0.5223
v 0.5041 0.3019 -0.4811
v -0.5041 0.3019 -0.4811
v 0.3134 0.3664 -0.3512
v -0.3134 0.3664 -0.3512
v 0.4474 0.0 0.4659
v -0.4474 0.0 0.4659
v -0.4474 0.0 -0.4247
v 0.4474 0.0 -0.4247
v -0.0555 0.4656 0.4918
v 0.0555 0.4656 0.4918
v -0.0166 0.5336 0.3909
v 0.0166 0.5336 0.3909
v -0.0403 0.5202 0.2685
v 0.0403 0.5202 0.2685
v -0.1927 0.3929 0.3215
v 0.1927 0.3929 0.3215
v -0.0954 0.8279 0.3125
v 0.0954 0.8279 0.3125
v 0.0576 0.7145 0.2215
v -0.0576 0.7145 0.2215
v -0.207 0.7283 0.3143
v -0.1234 0.7271 0.3223
v -0.2646 0.638 0.2427
v -0.0558 0.6243 0.2427
v -0.2206 0.5506 0.2585
v -0.1155 0.5437 0.2585
v -0.1269 0.7134 0.3146
v -0.2011 0.7145 0.3071
v -0.0664 0.6206 0.2267
v -0.2516 0.6345 0.2267
v -0.1297 0.715 0.2084
v -0.1759 0.7213 0.2084
v 0.1987 0.7283 0.3143
v 0.1145 0.7271 0.3223
v 0.2667 0.638 0.2427
v 0.0566 0.6243 0.2427
v 0.2224 0.5506 0.2585
v 0.1167 0.5437 0.2585
v 0.1174 0.7143 0.3153
v 0.1934 0.7154 0.3077
v 0.0655 0.6209 0.2257
v 0.2553 0.635 0.2257
v 0.1309 0.715 0.2084
v 0.1774 0.7213 0.2084
v 0.6843 0.6714 -0.295
v 0.6843 0.6539 -0.4298
v -0.6802 0.616 -0.4244
v -0.6789 0.6023 -0.2853
v -0.0395 0.7172 0.3072
v 0.0394 0.7212 0.3062

# 330 Texture Coordinates
vt -0.7377 1.5277
vt -0.4435 1.4367
vt -0.7684 1.7235
vt -1.7499 1.744
vt -1.9999 1.7403
vt -1.7499 1.6168
vt -1.9999 1.7403
vt -1.9999 1.6251
vt -1.7499 1.6168
vt 0.6542 1.998
vt 1.0007 1.9938
vt 0.6504 1.8514
vt -1.2499 1.7417
vt -1.2499 1.6108
vt -0.9999 1.7414
vt -1.2499 1.6108
vt -0.9999 1.6263
vt -0.9999 1.7414
vt -1.4999 1.7433
vt -1.7499 1.744
vt -1.4999 1.6151
vt -1.4999 1.6151
vt -1.7499 1.744
vt -1.7499 1.6168
vt -0.342 1.8222
vt -0.0001 1.9957
vt -0.3467 1.9964
vt -0.9999 1.6279
vt -0.9999 1.7431
vt -1.2499 1.6152
vt -1.2499 1.6152
vt -0.9999 1.7431
vt -1.2499 1.7468
vt -0.6537 1.7235
vt -0.9786 1.4367
vt -0.6911 1.485
vt -1.7499 1.7445
vt -1.9999 1.7465
vt -1.7499 1.6129
vt -1.9999 1.7465
vt -1.9999 1.6313
vt -1.7499 1.6129
vt -1.2499 1.6152
vt -1.2499 1.7468
vt -1.4999 1.6143
vt -1.4999 1.746
vt -1.4999 1.6143
vt -1.2499 1.7468
vt 0.0124 2.8652
vt 0.6305 2.8657
vt 0.002 2.9783
vt 0.6305 2.8657
vt 0.6383 2.9789
vt 0.002 2.9783
vt -0.9741 2.154
vt -0.3757 2.154
vt -0.9741 2.7049
vt -0.3757 2.154
vt -0.3757 2.7049
vt -0.9741 2.7049
vt 0.6344 2.9818
vt 0.0109 2.9811
vt 0.6322 2.8656
vt 0.0109 2.9811
vt 0.0131 2.8651
vt 0.6322 2.8656
vt 0.0131 2.8651
vt 0.0109 2.9811
vt 0.6305 2.8657
vt 0.6305 2.8657
vt 0.0109 2.9811
vt 0.6383 2.9789
vt 0.6345 2.8623
vt 0.0124 2.8652
vt 0.6389 2.9818
vt 0.0124 2.8652
vt 0.002 2.9783
vt 0.6389 2.9818
vt 0.0131 2.8651
vt 0.0153 2.7361
vt 0.6322 2.8656
vt 0.6322 2.8656
vt 0.0153 2.7361
vt 0.6301 2.7408
vt 0.6305 2.8657
vt 0.6301 2.7416
vt 0.0131 2.8651
vt 0.0131 2.8651
vt 0.6301 2.7416
vt 0.0153 2.7361
vt 0.6305 2.8657
vt 0.0124 2.8652
vt 0.6301 2.7416
vt 0.0124 2.8652
vt 0.0153 2.741
vt 0.6301 2.7416
vt 0.0124 2.8652
vt 0.6345 2.8623
vt 0.0153 2.741
vt 0.6345 2.8623
vt 0.6301 2.7408
vt 0.0153 2.741
vt 0.5484 1.9983
vt 1.1557 1.9983
vt 0.6136 2.3822
vt 1.0905 2.3822
vt 0.6136 2.3822
vt 1.1557 1.9983
vt -0.32 2.0237
vt -1.037 2.0237
vt -0.32 2.7373
vt -1.037 2.0237
vt -1.037 2.7373
vt -0.32 2.7373
vt 1.6822 2.0884
vt 1.0391 2.0836
vt 1.6828 2.4045
vt 1.0391 2.0836
vt 1.1552 2.4045
vt 1.6828 2.4045
vt 0.5484 1.9983
vt 0.6136 2.3822
vt -0.0543 2.0836
vt 0.6136 2.3822
vt 0.0951 2.4045
vt -0.0543 2.0836
vt 1.1557 1.9983
vt 1.6822 2.0884
vt 1.0905 2.3822
vt 1.6828 2.4045
vt 1.0905 2.3822
vt 1.6822 2.0884
vt -0.0006 1.9853
vt 0.6311 1.983
vt -0.0006 1.7518
vt 0.6311 1.983
vt 0.6311 1.7541
vt -0.0006 1.7518
vt 0.6311 1.983
vt 0.0035 1.9852
vt 0.6311 1.7541
vt 0.0035 1.9852
vt 0.0014 1.7541
vt 0.6311 1.7541
vt 0.0064 1.9852
vt 0.627 1.9811
vt 0.0034 1.7518
vt 0.627 1.9811
vt 0.6295 1.7518
vt 0.0034 1.7518
vt -0.0006 1.9853
vt -0.0006 1.7518
vt 0.627 1.9811
vt 0.627 1.9811
vt -0.0006 1.7518
vt 0.6295 1.7518
vt -0.6373 1.8264
vt -0.6831 1.8264
vt -0.5818 1.7545
vt -0.7387 1.7545
vt -0.5818 1.7545
vt -0.6831 1.8264
vt -0.913 1.9914
vt -0.4075 1.9914
vt -0.7387 1.7545
vt -0.4075 1.9914
vt -0.5818 1.7545
vt -0.7387 1.7545
vt -0.5818 1.7545
vt -0.3195 1.7583
vt -0.6373 1.8264
vt -0.3195 1.7583
vt -0.4757 1.8786
vt -0.6373 1.8264
vt -0.7387 1.7545
vt -0.6831 1.8264
vt -1.0046 1.7535
vt -1.0046 1.7535
vt -0.6831 1.8264
vt -0.7932 1.8745
vt -0.5861 1.9806
vt -0.7528 1.9806
vt -0.5979 1.9147
vt -0.7229 1.9122
vt -0.5979 1.9147
vt -0.7528 1.9806
vt -0.5979 1.9147
vt -0.5211 1.9851
vt -0.5861 1.9806
vt -0.8536 1.9874
vt -0.7229 1.9122
vt -0.7528 1.9806
vt 0.6136 2.3822
vt 0.5484 2.738
vt 0.0951 2.4045
vt 0.5484 2.738
vt 0.1229 2.7364
vt 0.0951 2.4045
vt 0.6136 2.3822
vt 1.0905 2.3822
vt 0.5484 2.738
vt 1.1557 2.738
vt 0.5484 2.738
vt 1.0905 2.3822
vt 1.0905 2.3822
vt 1.6828 2.4045
vt 1.1557 2.738
vt 1.5386 2.728
vt 1.1557 2.738
vt 1.6828 2.4045
vt 1.1552 2.4045
vt 1.1882 2.7364
vt 1.6828 2.4045
vt 1.1882 2.7364
vt 1.5386 2.728
vt 1.6828 2.4045
vt 0.3177 1.1036
vt 0.3112 1.2807
vt 0.1181 1.1015
vt 0.3112 1.2807
vt 0.1524 1.2804
vt 0.1181 1.1015
vt 0.4298 1.4879
vt 0.0333 1.4874
vt 0.3112 1.2807
vt 0.1524 1.2804
vt 0.3112 1.2807
vt 0.0333 1.4874
vt 0.3112 1.2807
vt 0.3177 1.1036
vt 0.4314 1.3596
vt 0.1181 1.1015
vt 0.1524 1.2804
vt -0.0431 1.3561
vt 0.2889 0.9932
vt 0.4173 0.9933
vt 0.2945 1.0024
vt 0.4173 0.9933
vt 0.3748 1.0023
vt 0.2945 1.0024
vt 0.2889 0.9932
vt 0.2945 1.0024
vt 0.183 0.9962
vt 0.3748 1.0023
vt 0.4173 0.9933
vt 0.5025 0.9967
vt 0.4589 1.343
vt 0.422 1.5215
vt 0.2581 1.3425
vt 0.2623 1.5196
vt 0.2581 1.3425
vt 0.422 1.5215
vt 0.5392 1.73
vt 0.1402 1.7252
vt 0.422 1.5215
vt 0.422 1.5215
vt 0.1402 1.7252
vt 0.2623 1.5196
vt 0.2623 1.5196
vt 0.1441 1.5969
vt 0.2581 1.3425
vt 0.4589 1.343
vt 0.6196 1.6
vt 0.422 1.5215
vt 0.1719 0.9933
vt 0.3033 0.9933
vt 0.2114 1.0024
vt 0.3033 0.9933
vt 0.2921 1.0024
vt 0.2114 1.0024
vt 0.3033 0.9933
vt 0.4101 0.9963
vt 0.2921 1.0024
vt 0.2114 1.0024
vt 0.0829 0.9967
vt 0.1719 0.9933
vt 0.6504 1.8514
vt 1.0007 1.9938
vt 0.6954 1.6468
vt 1.0007 1.9938
vt 0.9791 1.755
vt 0.6954 1.6468
vt -1.2499 1.6108
vt -1.2499 1.7417
vt -1.4999 1.6151
vt -1.2499 1.7417
vt -1.4999 1.7433
vt -1.4999 1.6151
vt -0.7377 1.5277
vt -0.6572 1.0152
vt -0.4435 1.4367
vt -0.6572 1.0152
vt -0.4435 1.1403
vt -0.4435 1.4367
vt -0.6911 1.485
vt -0.9786 1.4367
vt -0.7649 1.0152
vt -0.9786 1.4367
vt -0.9786 1.1403
vt -0.7649 1.0152
vt -1.4999 1.746
vt -1.7499 1.7445
vt -1.4999 1.6143
vt -1.7499 1.7445
vt -1.7499 1.6129
vt -1.4999 1.6143
vt -0.0001 1.9957
vt -0.342 1.8222
vt -0.0203 1.8262
vt -0.2736 1.6301
vt -0.0203 1.8262
vt -0.342 1.8222
vt -0.6831 1.8264
vt -0.7229 1.9122
vt -0.7932 1.8745
vt -0.7932 1.8745
vt -0.7229 1.9122
vt -0.8536 1.9874
vt -0.5979 1.9147
vt -0.7229 1.9122
vt -0.6373 1.8264
vt -0.6831 1.8264
vt -0.6373 1.8264
vt -0.7229 1.9122
vt -0.6373 1.8264
vt -0.4757 1.8786
vt -0.5979 1.9147
vt -0.4757 1.8786
vt -0.5211 1.9851
vt -0.5979 1.9147

# 330 Vertex Normals
vn -0.542734 -0.117762 -0.831608
vn -0.734994 0.249384 -0.630549
vn -0.761926 0.341086 -0.550571
vn -0.761926 0.341086 -0.550571
vn -0.734994 0.249384 -0.630549
vn -0.733277 0.678364 -0.046129
vn -0.734994 0.249384 -0.630549
vn -0.728788 0.68474 -0.0
vn -0.733277 0.678364 -0.046129
vn 0.792031 0.376005 0.480944
vn 0.45783 0.09177 0.884291
vn 0.92138 0.209861 0.327134
vn -0.556566 -0.500408 -0.663194
vn -0.277215 -0.958557 0.065725
vn -0.443752 -0.841626 -0.307815
vn -0.277215 -0.958557 0.065725
vn -0.284695 -0.958618 -0.0
vn -0.443752 -0.841626 -0.307815
vn 0.973731 0.225808 -0.029315
vn 0.816607 0.572109 -0.076451
vn 0.92138 0.209861 0.327134
vn 0.92138 0.209861 0.327134
vn 0.816607 0.572109 -0.076451
vn 0.792031 0.376005 0.480944
vn -0.877475 0.158545 0.452661
vn -0.482559 0.068981 0.873143
vn -0.816815 0.312317 0.485049
vn 0.728788 0.68474 0.0
vn 0.735659 0.24856 -0.630099
vn 0.733277 0.678364 -0.046129
vn 0.733277 0.678364 -0.046129
vn 0.735659 0.24856 -0.630099
vn 0.761927 0.341089 -0.550568
vn 0.761927 0.341089 -0.550568
vn 0.735659 0.24856 -0.630099
vn 0.544018 -0.119548 -0.830513
vn 0.557163 -0.501577 -0.661808
vn 0.443645 -0.841667 -0.307856
vn 0.277133 -0.958581 0.065727
vn 0.443645 -0.841667 -0.307856
vn 0.284612 -0.958643 -0.0
vn 0.277133 -0.958581 0.065727
vn -0.816815 0.312317 0.485049
vn -0.878746 0.477273 -0.003958
vn -0.877475 0.158545 0.452661
vn -0.985765 0.166173 0.025579
vn -0.877475 0.158545 0.452661
vn -0.878746 0.477273 -0.003958
vn -0.209292 -0.563223 0.79936
vn 0.218834 -0.370554 0.902663
vn -0.0 0.4996 0.866256
vn 0.218834 -0.370554 0.902663
vn -0.0 0.901332 0.433128
vn -0.0 0.4996 0.866256
vn -0.0 0.4996 0.866256
vn -0.0 0.901332 0.433128
vn 0.0 1.0 0.0
vn -0.0 0.901332 0.433128
vn 0.0 1.0 0.0
vn 0.0 1.0 0.0
vn 0.0 0.0 -1.0
vn 0.0 0.0 -1.0
vn -0.0 -0.504269 -0.863546
vn 0.0 0.0 -1.0
vn 0.0 -0.504269 -0.863546
vn -0.0 -0.504269 -0.863546
vn 0.799714 -0.597915 0.054361
vn 1.0 0.0 0.0
vn 0.966447 -0.254489 0.034876
vn 0.966447 -0.254489 0.034876
vn 1.0 0.0 0.0
vn 1.0 0.0 0.0
vn -0.799714 -0.597915 0.054361
vn -0.966447 -0.254489 0.034876
vn -1.0 0.0 -0.0
vn -0.966447 -0.254489 0.034876
vn -1.0 0.0 -0.0
vn -1.0 0.0 -0.0
vn 0.376449 -0.813859 -0.442628
vn 0.140949 -0.782872 -0.606007
vn -0.252468 -0.737943 -0.625859
vn -0.252468 -0.737943 -0.625859
vn 0.140949 -0.782872 -0.606007
vn -0.156225 -0.510876 -0.84534
vn 0.65534 -0.286845 0.698748
vn 0.708578 -0.589955 0.38713
vn 0.651331 -0.751496 -0.104984
vn 0.651331 -0.751496 -0.104984
vn 0.708578 -0.589955 0.38713
vn 0.472311 -0.826725 -0.305692
vn 0.218834 -0.370554 0.902663
vn -0.209292 -0.563223 0.79936
vn 0.296823 -0.658538 0.691538
vn -0.209292 -0.563223 0.79936
vn -0.331114 -0.466755 0.820063
vn 0.296823 -0.658538 0.691538
vn -0.637761 -0.443639 0.629639
vn -0.528097 -0.823784 -0.20614
vn -0.824971 -0.509832 0.243914
vn -0.528097 -0.823784 -0.20614
vn -0.649559 -0.733529 -0.200021
vn -0.824971 -0.509832 0.243914
vn -0.229559 0.313256 0.921506
vn 0.212808 0.600249 0.770983
vn -0.414229 0.75834 0.503324
vn 0.431345 0.692068 0.578777
vn -0.414229 0.75834 0.503324
vn 0.212808 0.600249 0.770983
vn 0.578853 -0.587585 0.565397
vn -0.561691 -0.781821 0.270664
vn 0.357904 -0.862417 -0.357969
vn -0.561691 -0.781821 0.270664
vn -0.365278 -0.576773 -0.730688
vn 0.357904 -0.862417 -0.357969
vn 0.284239 0.653471 -0.701558
vn -0.247497 0.845637 -0.472909
vn 0.460481 0.664079 -0.589029
vn -0.247497 0.845637 -0.472909
vn -0.639053 0.645918 -0.417613
vn 0.460481 0.664079 -0.589029
vn -0.759135 0.551213 0.346235
vn -0.414229 0.75834 0.503324
vn -0.677321 0.70617 -0.206301
vn -0.414229 0.75834 0.503324
vn -0.639053 0.645918 -0.417613
vn -0.677321 0.70617 -0.206301
vn 0.565146 0.65654 0.499564
vn 0.799727 0.587939 -0.12151
vn 0.431345 0.692068 0.578777
vn 0.460481 0.664079 -0.589029
vn 0.431345 0.692068 0.578777
vn 0.799727 0.587939 -0.12151
vn 0.359222 0.335048 0.871035
vn -0.347451 -0.028542 0.937264
vn 0.578853 -0.587585 0.565397
vn -0.347451 -0.028542 0.937264
vn -0.561691 -0.781821 0.270664
vn 0.578853 -0.587585 0.565397
vn -0.638326 -0.021913 0.769454
vn -0.895724 0.326695 -0.301578
vn -0.561691 -0.781821 0.270664
vn -0.895724 0.326695 -0.301578
vn -0.365278 -0.576773 -0.730688
vn -0.561691 -0.781821 0.270664
vn -0.658621 0.393024 -0.641677
vn 0.624289 0.026627 -0.780739
vn -0.365278 -0.576773 -0.730688
vn 0.624289 0.026627 -0.780739
vn 0.357904 -0.862417 -0.357969
vn -0.365278 -0.576773 -0.730688
vn 0.846098 0.108371 0.521895
vn 0.578853 -0.587585 0.565397
vn 0.804413 0.242689 -0.542237
vn 0.804413 0.242689 -0.542237
vn 0.578853 -0.587585 0.565397
vn 0.357904 -0.862417 -0.357969
vn 0.473558 0.650883 0.593376
vn -0.466186 0.723145 0.509638
vn 0.235455 0.845592 0.479098
vn -0.356362 0.832706 0.423801
vn 0.235455 0.845592 0.479098
vn -0.466186 0.723145 0.509638
vn 0.0 -0.919703 0.392615
vn 0.0 -0.919703 0.392615
vn 0.0 -0.919703 0.392615
vn 0.0 -0.919703 0.392615
vn 0.0 -0.919703 0.392615
vn 0.0 -0.919703 0.392615
vn 0.235455 0.845592 0.479098
vn 0.650155 0.748037 0.133191
vn 0.473558 0.650883 0.593376
vn 0.650155 0.748037 0.133191
vn 0.951874 0.259469 0.163133
vn 0.473558 0.650883 0.593376
vn -0.356362 0.832706 0.423801
vn -0.466186 0.723145 0.509638
vn -0.650155 0.748037 0.133191
vn -0.650155 0.748037 0.133191
vn -0.466186 0.723145 0.509638
vn -0.952493 0.258268 0.161415
vn 0.543164 -0.330641 0.771783
vn -0.353935 -0.226775 0.907361
vn 0.622936 -0.048088 0.780793
vn -0.635621 0.060012 0.769665
vn 0.622936 -0.048088 0.780793
vn -0.353935 -0.226775 0.907361
vn 0.723652 -0.16114 0.67109
vn 0.940787 -0.255854 0.222391
vn 0.543164 -0.330641 0.771783
vn -0.946035 -0.248803 0.207643
vn -0.85679 -0.170673 0.486602
vn -0.353935 -0.226775 0.907361
vn -0.414229 0.75834 0.503324
vn -0.822451 -0.184018 0.538248
vn -0.639053 0.645918 -0.417613
vn -0.822451 -0.184018 0.538248
vn -0.587386 -0.184213 -0.788063
vn -0.639053 0.645918 -0.417613
vn -0.414229 0.75834 0.503324
vn 0.431345 0.692068 0.578777
vn -0.59144 0.084943 0.801863
vn 0.605266 -0.212612 0.767105
vn -0.59144 0.084943 0.801863
vn 0.431345 0.692068 0.578777
vn 0.431345 0.692068 0.578777
vn 0.460481 0.664079 -0.589029
vn 0.89919 -0.304432 0.31429
vn 0.878939 -0.475947 0.030671
vn 0.89919 -0.304432 0.31429
vn 0.588739 0.771169 -0.242248
vn -0.639053 0.645918 -0.417613
vn -0.367539 -0.159108 -0.916297
vn 0.285722 0.705564 -0.648492
vn -0.367539 -0.159108 -0.916297
vn -0.0 -0.628057 -0.778168
vn 0.285722 0.705564 -0.648492
vn 0.277666 -0.304949 0.910993
vn 0.151889 -0.305245 0.940082
vn -0.263403 -0.281628 0.922662
vn 0.151889 -0.305245 0.940082
vn -0.383511 -0.249837 0.889101
vn -0.263403 -0.281628 0.922662
vn 0.04124 0.628527 -0.776694
vn 0.063447 0.607093 -0.792094
vn 0.063447 0.607093 -0.792094
vn 0.085578 0.584937 -0.806551
vn 0.063447 0.607093 -0.792094
vn 0.063447 0.607093 -0.792094
vn 0.151889 -0.305245 0.940082
vn 0.277666 -0.304949 0.910993
vn 0.551614 -0.252757 0.794881
vn -0.263403 -0.281628 0.922662
vn -0.383511 -0.249837 0.889101
vn -0.637717 -0.185917 0.747497
vn -0.419134 0.906831 -0.044536
vn 0.357667 0.933511 0.025132
vn -0.229457 0.972985 -0.025493
vn 0.357667 0.933511 0.025132
vn 0.530258 0.847836 -0.001207
vn -0.229457 0.972985 -0.025493
vn -0.419134 0.906831 -0.044536
vn -0.229457 0.972985 -0.025493
vn -0.760564 0.631536 -0.150677
vn 0.530258 0.847836 -0.001207
vn 0.357667 0.933511 0.025132
vn 0.831696 0.555065 -0.013566
vn 0.327599 -0.243011 0.913031
vn 0.248819 -0.273588 0.929106
vn -0.160965 -0.315136 0.935297
vn -0.254855 -0.320437 0.912343
vn -0.160965 -0.315136 0.935297
vn 0.248819 -0.273588 0.929106
vn -0.039287 0.602492 -0.797158
vn -0.060576 0.620856 -0.78158
vn -0.060576 0.620856 -0.78158
vn -0.060576 0.620856 -0.78158
vn -0.060576 0.620856 -0.78158
vn -0.081803 0.638579 -0.765196
vn -0.254855 -0.320437 0.912343
vn -0.572498 -0.275506 0.772232
vn -0.160965 -0.315136 0.935297
vn 0.327599 -0.243011 0.913031
vn 0.603153 -0.164628 0.780451
vn 0.248819 -0.273588 0.929106
vn -0.47435 0.878669 -0.05415
vn 0.221139 0.975241 0.001351
vn -0.357481 0.933903 -0.005725
vn 0.221139 0.975241 0.001351
vn 0.34944 0.936959 -0.000634
vn -0.357481 0.933903 -0.005725
vn 0.221139 0.975241 0.001351
vn 0.747907 0.658798 -0.081365
vn 0.34944 0.936959 -0.000634
vn -0.357481 0.933903 -0.005725
vn -0.825561 0.55527 -0.100621
vn -0.47435 0.878669 -0.05415
vn 0.92138 0.209861 0.327134
vn 0.45783 0.09177 0.884291
vn 0.720652 0.027945 0.692733
vn 0.45783 0.09177 0.884291
vn 0.405182 0.068712 0.91165
vn 0.720652 0.027945 0.692733
vn 0.720652 0.027945 0.692733
vn 0.987828 -0.154177 0.020603
vn 0.92138 0.209861 0.327134
vn 0.987828 -0.154177 0.020603
vn 0.973731 0.225808 -0.029315
vn 0.92138 0.209861 0.327134
vn -0.542734 -0.117762 -0.831608
vn -0.556566 -0.500408 -0.663194
vn -0.734994 0.249384 -0.630549
vn -0.556566 -0.500408 -0.663194
vn -0.443752 -0.841626 -0.307815
vn -0.734994 0.249384 -0.630549
vn 0.544018 -0.119548 -0.830513
vn 0.735659 0.24856 -0.630099
vn 0.557163 -0.501577 -0.661808
vn 0.735659 0.24856 -0.630099
vn 0.443645 -0.841667 -0.307856
vn 0.557163 -0.501577 -0.661808
vn -0.985765 0.166173 0.025579
vn -0.984367 -0.175939 0.008243
vn -0.877475 0.158545 0.452661
vn -0.984367 -0.175939 0.008243
vn -0.840863 0.00462 0.541229
vn -0.877475 0.158545 0.452661
vn -0.482559 0.068981 0.873143
vn -0.877475 0.158545 0.452661
vn -0.456419 0.133933 0.879627
vn -0.840863 0.00462 0.541229
vn -0.456419 0.133933 0.879627
vn -0.877475 0.158545 0.452661
vn -0.466186 0.723145 0.509638
vn -0.635621 0.060012 0.769665
vn -0.952493 0.258268 0.161415
vn -0.952493 0.258268 0.161415
vn -0.635621 0.060012 0.769665
vn -0.946035 -0.248803 0.207643
vn 0.508467 0.063658 0.858725
vn -0.509275 0.186732 0.840101
vn 0.473558 0.650883 0.593376
vn -0.466186 0.723145 0.509638
vn 0.473558 0.650883 0.593376
vn -0.509275 0.186732 0.840101
vn 0.473558 0.650883 0.593376
vn 0.951874 0.259469 0.163133
vn 0.622936 -0.048088 0.780793
vn 0.951874 0.259469 0.163133
vn 0.940787 -0.255854 0.222391
vn 0.622936 -0.048088 0.780793

# Object_1, 110 grouped triangles

usemtl shhhh
o Object_1
g Object_1

f 78/1/1 4/2/2 3/3/3
f 3/4/4 4/5/5 5/6/6
f 4/7/7 6/8/8 5/9/9
f 5/10/10 6/11/11 77/12/12
f 1/13/13 7/14/14 2/15/15
f 7/16/16 8/17/17 2/18/18
f 78/19/19 3/20/20 77/21/21
f 77/22/22 3/23/23 5/24/24
f 80/25/25 12/26/26 11/27/27
f 12/28/28 14/29/29 11/30/30
f 11/31/31 14/32/32 13/33/33
f 13/34/34 14/35/35 79/36/36
f 15/37/37 16/38/38 9/39/39
f 16/40/40 10/41/41 9/42/42
f 11/43/43 13/44/44 80/45/45
f 79/46/46 80/47/47 13/48/48
f 17/49/49 18/50/50 19/51/51
f 18/52/52 20/53/53 19/54/54
f 19/55/55 20/56/56 21/57/57
f 20/58/58 22/59/59 21/60/60
f 21/61/61 22/62/62 23/63/63
f 22/64/64 24/65/65 23/66/66
f 24/67/67 22/68/68 18/69/69
f 18/70/70 22/71/71 20/72/72
f 23/73/73 17/74/74 21/75/75
f 17/76/76 19/77/77 21/78/78
f 24/79/79 26/80/80 23/81/81
f 23/82/82 26/83/83 25/84/84
f 18/85/85 27/86/86 24/87/87
f 24/88/88 27/89/89 26/90/90
f 18/91/91 17/92/92 27/93/93
f 17/94/94 28/95/95 27/96/96
f 17/97/97 23/98/98 28/99/99
f 23/100/100 25/101/101 28/102/102
f 32/103/103 31/104/104 30/105/105
f 29/106/106 30/107/107 31/108/108
f 37/109/109 38/110/110 40/111/111
f 38/112/112 39/113/113 40/114/114
f 33/115/115 34/116/116 35/117/117
f 34/118/118 36/119/119 35/120/120
f 32/121/121 30/122/122 34/123/123
f 30/124/124 36/125/125 34/126/126
f 31/127/127 33/128/128 29/129/129
f 35/130/130 29/131/131 33/132/132
f 31/133/133 32/134/134 37/135/135
f 32/136/136 38/137/137 37/138/138
f 32/139/139 34/140/140 38/141/141
f 34/142/142 39/143/143 38/144/144
f 34/145/145 33/146/146 39/147/147
f 33/148/148 40/149/149 39/150/150
f 31/151/151 37/152/152 33/153/153
f 33/154/154 37/155/155 40/156/156
f 44/157/157 43/158/158 42/159/159
f 41/160/160 42/161/161 43/162/162
f 47/163/163 48/164/164 41/165/165
f 48/166/166 42/167/167 41/168/168
f 42/169/169 48/170/170 44/171/171
f 48/172/172 46/173/173 44/174/174
f 41/175/175 43/176/176 47/177/177
f 47/178/178 43/179/179 45/180/180
f 50/181/181 49/182/182 82/183/183
f 81/184/184 82/185/185 49/186/186
f 82/187/187 51/188/188 50/189/189
f 52/190/190 81/191/191 49/192/192
f 30/193/193 28/194/194 36/195/195
f 28/196/196 25/197/197 36/198/198
f 30/199/199 29/200/200 28/201/201
f 27/202/202 28/203/203 29/204/204
f 29/205/205 35/206/206 27/207/207
f 26/208/208 27/209/209 35/210/210
f 36/211/211 25/212/212 35/213/213
f 25/214/214 26/215/215 35/216/216
f 58/217/217 54/218/218 57/219/219
f 54/220/220 53/221/221 57/222/222
f 56/223/223 55/224/224 54/225/225
f 53/226/226 54/227/227 55/228/228
f 54/229/229 58/230/230 56/231/231
f 57/232/232 53/233/233 55/234/234
f 60/235/235 59/236/236 64/237/237
f 59/238/238 63/239/239 64/240/240
f 60/241/241 64/242/242 62/243/243
f 63/244/244 59/245/245 61/246/246
f 69/247/247 65/248/248 70/249/249
f 66/250/250 70/251/251 65/252/252
f 67/253/253 68/254/254 65/255/255
f 65/256/256 68/257/257 66/258/258
f 66/259/259 68/260/260 70/261/261
f 69/262/262 67/263/263 65/264/264
f 71/265/265 72/266/266 75/267/267
f 72/268/268 76/269/269 75/270/270
f 72/271/271 74/272/272 76/273/273
f 75/274/274 73/275/275 71/276/276
f 77/277/277 6/278/278 7/279/279
f 6/280/280 8/281/281 7/282/282
f 7/283/283 1/284/284 77/285/285
f 1/286/286 78/287/287 77/288/288
f 78/289/289 1/290/290 4/291/291
f 1/292/292 2/293/293 4/294/294
f 79/295/295 14/296/296 15/297/297
f 14/298/298 16/299/299 15/300/300
f 79/301/301 15/302/302 80/303/303
f 15/304/304 9/305/305 80/306/306
f 12/307/307 80/308/308 10/309/309
f 9/310/310 10/311/311 80/312/312
f 43/313/313 81/314/314 45/315/315
f 45/316/316 81/317/317 52/318/318
f 82/319/319 81/320/320 44/321/321
f 43/322/322 44/323/323 81/324/324
f 44/325/325 46/326/326 82/327/327
f 46/328/328 51/329/329 82/330/330
