# Wavefront OBJ file
# Exported by Misfit Model 3D 1.3.8
# Mon Jun 16 01:13:17 2014

mtllib tiki_lovey_dovey_bind.mtl

# 76 Vertices
v -0.1066 0.3544 0.5902
v 0.0041 0.3284 0.6008
v -0.1066 0.4537 0.5177
v 0.0041 0.4039 0.5447
v -0.1066 0.2706 0.3623
v 0.0041 0.2699 0.3542
v -0.093 0.3206 0.4967
v 0.0019 0.2851 0.5518
v 0.0908 0.3193 0.4968
v 0.1112 0.3563 0.5785
v 0.1112 0.2705 0.3551
v 0.1112 0.4468 0.5178
v -0.2067 0.3234 0.4811
v 0.2215 0.3273 0.4926
v -0.1066 0.2348 0.5937
v 0.0041 0.211 0.6177
v -0.091 0.1349 0.4991
v 0.0041 0.1299 0.5536
v 0.0956 0.1418 0.499
v 0.1112 0.2367 0.582
v -0.0422 0.4827 0.579
v 0.0415 0.4827 0.579
v -0.0127 0.6991 0.4432
v 0.012 0.6991 0.4432
v -0.054 0.5192 0.4534
v 0.0532 0.5192 0.4534
v -0.0882 0.4601 0.4316
v 0.0874 0.4601 0.4316
v 0.0692 0.664 0.6517
v 0.4002 0.7486 0.4305
v 0.066 0.5817 0.3766
v 0.2657 0.5942 0.1498
v 0.0772 0.5949 0.4848
v 0.369 0.6707 0.3002
v -0.001 0.0 0.5044
v 0.5227 0.0 -0.0093
v -0.001 0.2386 0.507
v 0.5824 0.2386 -0.0093
v -0.5846 0.2386 -0.0093
v -0.001 0.2386 -0.5772
v -0.5248 0.0 -0.0093
v -0.001 0.0 -0.5149
v -0.001 0.5058 0.4852
v 0.4192 0.5546 -0.0054
v -0.001 0.5546 -0.5096
v -0.4213 0.5546 -0.0054
v -0.001 0.8586 0.4239
v 0.3634 0.8541 -0.0093
v -0.001 0.8586 -0.3947
v -0.3656 0.8541 -0.0093
v -0.001 0.8676 0.5135
v 0.4477 0.7239 -0.0143
v -0.001 0.9927 0.515
v 0.4981 0.9927 -0.0154
v -0.5003 0.9927 -0.0154
v -0.001 0.9927 -0.5339
v -0.4499 0.7239 -0.0143
v -0.001 0.6914 -0.5321
v -0.0714 0.664 0.6517
v -0.4024 0.7486 0.4305
v -0.0682 0.5817 0.3766
v -0.2679 0.5942 0.1498
v -0.0794 0.5949 0.4848
v -0.3712 0.6707 0.3002
v 0.1895 0.2669 -0.3507
v 0.4406 0.3446 -0.4037
v 0.1694 0.5005 -0.3017
v 0.4685 0.7878 -0.324
v 1.171 0.8784 -0.3088
v 1.015 0.6723 -0.3286
v -0.1895 0.2669 -0.3507
v -0.4406 0.3446 -0.4037
v -0.1694 0.5005 -0.3017
v -0.4685 0.7878 -0.324
v -1.171 0.8784 -0.3088
v -1.015 0.6723 -0.3286

# 294 Texture Coordinates
vt 0.7115 0.9021
vt 0.8047 0.9003
vt 0.7123 0.9912
vt 0.8047 0.9003
vt 0.8056 0.9916
vt 0.7123 0.9912
vt 0.8056 0.9916
vt 0.8034 0.7553
vt 0.7123 0.9912
vt 0.7123 0.9912
vt 0.8034 0.7553
vt 0.7101 0.7543
vt 0.7222 0.8246
vt 0.8014 0.7522
vt 0.7115 0.9021
vt 0.8014 0.7522
vt 0.8047 0.9003
vt 0.7115 0.9021
vt 0.8769 0.8176
vt 0.8949 0.9031
vt 0.8014 0.7522
vt 0.8047 0.9003
vt 0.8014 0.7522
vt 0.8949 0.9031
vt 0.8957 0.9884
vt 0.8935 0.756
vt 0.8056 0.9916
vt 0.8034 0.7553
vt 0.8056 0.9916
vt 0.8935 0.756
vt 0.8949 0.9031
vt 0.8957 0.9884
vt 0.8047 0.9003
vt 0.8056 0.9916
vt 0.8047 0.9003
vt 0.8957 0.9884
vt 0.7222 0.8246
vt 0.7115 0.9021
vt 0.6259 0.7538
vt 0.7115 0.9021
vt 0.7123 0.9912
vt 0.6259 0.7538
vt 0.7123 0.9912
vt 0.7101 0.7543
vt 0.6259 0.7538
vt 0.8949 0.9031
vt 0.8769 0.8176
vt 0.9863 0.7517
vt 0.8935 0.756
vt 0.8957 0.9884
vt 0.9863 0.7517
vt 0.8957 0.9884
vt 0.8949 0.9031
vt 0.9863 0.7517
vt 0.7115 0.911
vt 0.7104 0.7875
vt 0.8047 0.8927
vt 0.7104 0.7875
vt 0.8035 0.7677
vt 0.8047 0.8927
vt 0.895 0.9144
vt 0.8047 0.8927
vt 0.894 0.8082
vt 0.8047 0.8927
vt 0.8035 0.7677
vt 0.894 0.8082
vt 0.7115 0.911
vt 0.8047 0.8927
vt 0.7237 0.9882
vt 0.8047 0.8927
vt 0.8037 0.988
vt 0.7237 0.9882
vt 0.7115 0.911
vt 0.7237 0.9882
vt 0.626 0.9875
vt 0.7104 0.7875
vt 0.7115 0.911
vt 0.626 0.9875
vt 0.7104 0.7875
vt 0.626 0.9875
vt 0.7123 0.9901
vt 0.8035 0.7677
vt 0.7104 0.7875
vt 0.8056 0.9911
vt 0.7104 0.7875
vt 0.7123 0.9901
vt 0.8056 0.9911
vt 0.8035 0.7677
vt 0.8056 0.9911
vt 0.894 0.8082
vt 0.894 0.8082
vt 0.8056 0.9911
vt 0.8957 0.9918
vt 0.9885 0.9875
vt 0.894 0.8082
vt 0.8957 0.9918
vt 0.895 0.9144
vt 0.8784 0.9812
vt 0.8047 0.8927
vt 0.8784 0.9812
vt 0.8037 0.988
vt 0.8047 0.8927
vt 0.9885 0.9875
vt 0.8784 0.9812
vt 0.895 0.9144
vt 0.9885 0.9875
vt 0.895 0.9144
vt 0.894 0.8082
vt 0.0179 0.6169
vt -0.0112 0.617
vt 0.0656 0.2382
vt -0.0614 0.2386
vt 0.0656 0.2382
vt -0.0112 0.617
vt -0.1282 0.4474
vt 0.1304 0.4465
vt -0.0614 0.2386
vt 0.1304 0.4465
vt 0.0656 0.2382
vt -0.0614 0.2386
vt 0.0656 0.2382
vt 0.2391 0.4379
vt 0.0179 0.6169
vt -0.3702 0.3606
vt -0.0614 0.2386
vt -0.2336 0.4394
vt -0.2336 0.4394
vt -0.0614 0.2386
vt -0.0112 0.617
vt 0.0656 0.2382
vt 0.3753 0.3582
vt 0.2391 0.4379
vt 0.8376 0.1056
vt 0.9982 0.1056
vt 0.8376 0.2112
vt 0.9982 0.1056
vt 0.9982 0.2112
vt 0.8376 0.2112
vt 0.8376 0.0
vt 0.9982 0.0
vt 0.8376 0.1056
vt 0.9982 0.0
vt 0.9982 0.1056
vt 0.8376 0.1056
vt 0.4592 -0.7934
vt 0.0001 -0.7934
vt 0.4563 -0.9976
vt 0.0001 -0.9976
vt 0.4563 -0.9976
vt 0.0001 -0.7934
vt 0.4863 -0.7934
vt -0.0019 -0.7934
vt 0.4892 -0.9976
vt -0.0019 -0.7934
vt -0.0019 -0.9976
vt 0.4892 -0.9976
vt -0.9464 0.005
vt -0.9432 0.2097
vt -0.382 0.0025
vt -0.9432 0.2097
vt -0.3831 0.2088
vt -0.382 0.0025
vt -0.0023 -0.7934
vt 0.4592 -0.7934
vt -0.0023 -0.9976
vt 0.4563 -0.9976
vt -0.0023 -0.9976
vt 0.4592 -0.7934
vt 0.4863 -0.7934
vt 0.4892 -0.9976
vt 0.0001 -0.7934
vt 0.4892 -0.9976
vt 0.0001 -0.9976
vt 0.0001 -0.7934
vt 0.4571 -0.7897
vt 0.8207 -0.7897
vt 0.4571 -0.5453
vt 0.8207 -0.7897
vt 0.8112 -0.4985
vt 0.4571 -0.5453
vt 0.8207 -0.7897
vt 1.2072 -0.7897
vt 0.8112 -0.4985
vt 1.2072 -0.7897
vt 1.2072 -0.4985
vt 0.8112 -0.4985
vt 0.0936 -0.7897
vt 0.103 -0.4985
vt -0.2929 -0.7897
vt -0.2929 -0.7897
vt 0.103 -0.4985
vt -0.2929 -0.4985
vt 0.4571 -0.7897
vt 0.4571 -0.5453
vt 0.0936 -0.7897
vt 0.0936 -0.7897
vt 0.4571 -0.5453
vt 0.103 -0.4985
vt 0.4571 -0.5453
vt 0.8112 -0.4985
vt 0.4571 -0.2209
vt 0.8112 -0.4985
vt 0.8124 -0.2209
vt 0.4571 -0.2209
vt 1.2072 -0.4985
vt 1.2072 -0.2209
vt 0.8112 -0.4985
vt 0.8112 -0.4985
vt 1.2072 -0.2209
vt 0.8124 -0.2209
vt -0.2929 -0.4985
vt 0.103 -0.4985
vt -0.2929 -0.2209
vt 0.103 -0.4985
vt 0.1019 -0.2209
vt -0.2929 -0.2209
vt 0.4571 -0.5453
vt 0.4571 -0.2209
vt 0.103 -0.4985
vt 0.103 -0.4985
vt 0.4571 -0.2209
vt 0.1019 -0.2209
vt -0.9943 1.2213
vt -0.5102 1.2213
vt -0.9953 1.0074
vt -0.5102 1.0062
vt -0.9953 1.0074
vt -0.5102 1.2213
vt -0.138 0.003
vt 0.3116 0.0018
vt -0.1441 0.2159
vt 0.3116 0.0018
vt 0.3073 0.2121
vt -0.1441 0.2159
vt -0.996 1.2213
vt -0.5114 1.2213
vt -0.995 1.0058
vt -0.5114 1.2213
vt -0.5113 1.0048
vt -0.995 1.0058
vt -0.0025 -0.8087
vt -0.989 -0.808
vt -0.0021 -0.9322
vt -0.989 -0.808
vt -0.9857 -0.9286
vt -0.0021 -0.9322
vt -0.9943 1.2213
vt -0.9953 1.0074
vt -0.5113 1.2213
vt -0.9953 1.0074
vt -0.5113 1.0055
vt -0.5113 1.2213
vt -0.996 1.2213
vt -0.995 1.0058
vt -0.5102 1.2213
vt -0.995 1.0058
vt -0.5102 1.0062
vt -0.5102 1.2213
vt 0.8376 0.1056
vt 0.8376 0.2112
vt 0.9982 0.1056
vt 0.8376 0.2112
vt 0.9982 0.2112
vt 0.9982 0.1056
vt 0.8376 0.0
vt 0.8376 0.1056
vt 0.9982 0.0
vt 0.8376 0.1056
vt 0.9982 0.1056
vt 0.9982 0.0
vt 0.1222 0.9995
vt 0.0019 0.8753
vt 0.3054 0.7568
vt 0.0005 0.7552
vt 0.3054 0.7568
vt 0.0019 0.8753
vt 0.6254 0.9941
vt 0.1222 0.9995
vt 0.5688 0.8393
vt 0.3054 0.7568
vt 0.5688 0.8393
vt 0.1222 0.9995
vt 0.1222 0.9995
vt 0.3054 0.7568
vt 0.0019 0.8753
vt 0.0005 0.7552
vt 0.0019 0.8753
vt 0.3054 0.7568
vt 0.6254 0.9941
vt 0.5688 0.8393
vt 0.1222 0.9995
vt 0.3054 0.7568
vt 0.1222 0.9995
vt 0.5688 0.8393

# 294 Vertex Normals
vn -0.405539 0.121266 0.905998
vn 0.045174 0.194421 0.979877
vn -0.04983 0.813965 0.578773
vn 0.045174 0.194421 0.979877
vn 0.172693 0.968035 0.181896
vn -0.04983 0.813965 0.578773
vn 0.03786 0.944179 -0.32725
vn 0.138669 0.757069 -0.638449
vn 0.013987 0.994304 -0.105655
vn -0.032612 0.706837 -0.706625
vn 0.107239 0.221652 -0.969211
vn -0.470965 -0.002301 -0.882149
vn -0.270027 -0.917394 0.292359
vn 0.029441 -0.870192 0.491833
vn -0.474588 -0.674175 0.56591
vn -0.022324 -0.703391 0.710452
vn 0.045174 0.194421 0.979877
vn -0.429871 -0.459583 0.777171
vn 0.282439 -0.898391 0.336337
vn 0.469193 -0.641058 0.607374
vn 0.029441 -0.870192 0.491833
vn 0.045174 0.194421 0.979877
vn 0.086428 -0.701399 0.707509
vn 0.436234 -0.424901 0.793195
vn 0.043821 0.677542 -0.734177
vn 0.02831 0.731969 -0.68075
vn 0.013733 0.776304 -0.630209
vn 0.138669 0.757069 -0.638449
vn 0.021837 0.998708 -0.04588
vn 0.02831 0.731969 -0.68075
vn 0.4146 0.118231 0.902291
vn 0.214872 0.557984 0.801551
vn 0.045174 0.194421 0.979877
vn 0.015655 0.890211 0.455279
vn 0.045174 0.194421 0.979877
vn 0.214872 0.557984 0.801551
vn -0.270027 -0.917394 0.292359
vn -0.262176 -0.868249 0.421198
vn -0.647077 -0.754788 0.107637
vn -0.504573 -0.217247 0.835589
vn -0.382848 0.758458 0.527417
vn -0.954331 0.250787 0.16235
vn -0.28774 0.824441 -0.487342
vn -0.470965 -0.002301 -0.882149
vn -0.858724 0.509516 0.054641
vn 0.297703 -0.848148 0.438198
vn 0.282439 -0.898391 0.336337
vn 0.622207 -0.763836 0.171504
vn 0.29307 0.526357 -0.798159
vn 0.367554 0.863506 -0.345342
vn 0.948234 0.253402 -0.191413
vn 0.375283 0.740024 0.558147
vn 0.512433 -0.198869 0.835382
vn 0.738919 0.497359 0.454569
vn -0.582729 -0.604902 0.542697
vn -0.488479 -0.872431 0.015906
vn -0.013733 -0.456028 0.889859
vn -0.665708 -0.640509 0.382859
vn -0.088047 -0.911785 0.401117
vn 0.039258 0.062569 0.997268
vn 0.58208 -0.587424 0.562242
vn 0.084731 -0.454335 0.886792
vn 0.496279 -0.867311 0.038463
vn 0.039258 0.062569 0.997268
vn 0.153834 -0.902494 0.402292
vn 0.671549 -0.627151 0.394592
vn -0.027288 0.750643 0.660145
vn 0.029541 0.369056 0.928937
vn -0.080191 0.720363 0.688946
vn -0.031695 0.199023 0.979482
vn -0.098669 0.263395 0.959629
vn -0.080191 0.720363 0.688946
vn -0.027288 0.750643 0.660145
vn -0.080191 0.720363 0.688946
vn -0.581864 0.775365 0.245447
vn -0.618667 -0.768523 0.163168
vn -0.582729 -0.604902 0.542697
vn -0.809243 -0.515099 0.282489
vn -0.488479 -0.872431 0.015906
vn -0.948325 -0.312734 0.053636
vn -0.470965 -0.002301 -0.882149
vn 0.235802 -0.95306 -0.18993
vn -0.278456 -0.900564 -0.333837
vn -0.000211 -0.775284 -0.631613
vn -0.454935 -0.872728 -0.177145
vn -0.470965 -0.002301 -0.882149
vn -0.01302 -0.594486 -0.804001
vn -0.175785 -0.967291 -0.182889
vn -0.000211 -0.775284 -0.631613
vn 0.302513 -0.899756 -0.314524
vn 0.45611 -0.878421 -0.142619
vn -0.01302 -0.594486 -0.804001
vn 0.420374 -0.698489 -0.579136
vn 0.835253 -0.543694 -0.082155
vn 0.496279 -0.867311 0.038463
vn 0.567497 -0.30761 -0.763756
vn 0.017219 0.719928 0.693835
vn 0.078316 0.701133 0.708716
vn 0.029541 0.369056 0.928937
vn 0.078316 0.701133 0.708716
vn 0.150854 0.267554 0.951661
vn 0.101851 0.2054 0.973364
vn 0.320469 0.614993 0.720474
vn 0.078316 0.701133 0.708716
vn 0.017219 0.719928 0.693835
vn 0.764803 -0.522182 0.377363
vn 0.58208 -0.587424 0.562242
vn 0.615481 -0.76545 0.187802
vn 0.606775 0.480213 0.633419
vn -0.391527 0.526814 0.754436
vn 0.565198 0.529789 0.632357
vn -0.734218 0.476166 0.483933
vn 0.565198 0.529789 0.632357
vn -0.391527 0.526814 0.754436
vn -0.0 -0.988449 0.151553
vn -0.0 -0.988449 0.151553
vn -0.0 -0.988449 0.151553
vn -0.0 -0.988449 0.151553
vn 0.0 -0.988449 0.151553
vn -0.0 -0.988449 0.151553
vn 0.565198 0.529789 0.632357
vn 0.925271 0.332364 0.182778
vn 0.606775 0.480213 0.633419
vn -0.877911 0.431366 0.207836
vn -0.734218 0.476166 0.483933
vn -0.925077 0.332488 0.183533
vn -0.925077 0.332488 0.183533
vn -0.734218 0.476166 0.483933
vn -0.391527 0.526814 0.754436
vn 0.565198 0.529789 0.632357
vn 0.877938 0.431612 0.207211
vn 0.925271 0.332364 0.182778
vn -0.405123 0.871076 -0.277673
vn -0.363326 0.901231 -0.236172
vn -0.315565 0.934897 -0.162438
vn -0.363326 0.901231 -0.236172
vn -0.32865 0.913705 -0.239022
vn -0.315565 0.934897 -0.162438
vn -0.449532 0.817504 -0.360011
vn -0.449235 0.813891 -0.368469
vn -0.405123 0.871076 -0.277673
vn -0.449235 0.813891 -0.368469
vn -0.363326 0.901231 -0.236172
vn -0.405123 0.871076 -0.277673
vn 0.686188 0.084683 0.722478
vn 0.000079 -0.050157 0.998741
vn 0.587288 -0.508058 0.630055
vn 0.000048 -0.010896 0.999941
vn 0.67932 -0.085974 0.728788
vn 0.000079 -0.050157 0.998741
vn -0.694557 0.090214 -0.713759
vn -0.522596 -0.014596 -0.852456
vn -0.572962 -0.567637 -0.591187
vn -0.522596 -0.014596 -0.852456
vn 0.20342 -0.751605 -0.627463
vn -0.572962 -0.567637 -0.591187
vn -0.772444 -0.580571 -0.257425
vn 0.20342 -0.751605 -0.627463
vn 0.0 -1.0 0.0
vn 0.20342 -0.751605 -0.627463
vn 0.707891 -0.706144 0.015852
vn 0.0 -1.0 0.0
vn 0.208911 -0.016785 -0.977791
vn 0.696519 -0.003054 -0.717532
vn 0.20342 -0.751605 -0.627463
vn 0.447113 -0.765252 -0.463119
vn 0.20342 -0.751605 -0.627463
vn 0.696519 -0.003054 -0.717532
vn -0.686076 0.084662 0.722588
vn -0.587172 -0.508142 0.630096
vn 0.000079 -0.050157 0.998741
vn -0.679217 -0.086094 0.728871
vn 0.000048 -0.010896 0.999941
vn 0.000079 -0.050157 0.998741
vn 0.000079 -0.050157 0.998741
vn 0.686188 0.084683 0.722478
vn 0.207483 0.25938 0.943225
vn 0.862796 0.192483 0.467476
vn 0.953219 0.273009 -0.129769
vn 0.207483 0.25938 0.943225
vn 0.876098 0.110128 -0.469387
vn 0.464365 0.206824 -0.861156
vn 0.953219 0.273009 -0.129769
vn 0.718684 0.101944 -0.687823
vn 0.754838 0.185678 -0.629082
vn 0.953219 0.273009 -0.129769
vn -0.912083 0.235277 -0.335782
vn -0.953212 0.273013 -0.129808
vn -0.528215 0.116912 -0.841023
vn -0.715035 0.032167 -0.698349
vn -0.953212 0.273013 -0.129808
vn -0.754761 0.185703 -0.629167
vn 0.000079 -0.050157 0.998741
vn -0.207324 0.259387 0.943258
vn -0.686076 0.084662 0.722588
vn -0.862725 0.192526 0.467588
vn -0.207324 0.259387 0.943258
vn -0.953212 0.273013 -0.129808
vn 0.708472 0.176743 0.683249
vn 0.953219 0.273009 -0.129769
vn 0.753371 0.131437 0.644327
vn 0.953219 0.273009 -0.129769
vn 0.98271 0.182698 -0.030053
vn 0.753371 0.131437 0.644327
vn 0.754838 0.185678 -0.629082
vn 0.735606 0.180746 -0.652851
vn 0.953219 0.273009 -0.129769
vn 0.953219 0.273009 -0.129769
vn 0.735606 0.180746 -0.652851
vn 0.98271 0.182698 -0.030053
vn -0.754761 0.185703 -0.629167
vn -0.953212 0.273013 -0.129808
vn -0.735493 0.180626 -0.653011
vn -0.953212 0.273013 -0.129808
vn -0.982769 0.182381 -0.030054
vn -0.735493 0.180626 -0.653011
vn -0.708368 0.176805 0.683341
vn -0.753258 0.131306 0.644485
vn -0.953212 0.273013 -0.129808
vn -0.953212 0.273013 -0.129808
vn -0.753258 0.131306 0.644485
vn -0.982769 0.182381 -0.030054
vn 0.982854 -0.184307 -0.005308
vn 0.743005 -0.070332 0.66558
vn 0.793347 -0.602977 0.083782
vn 0.495677 -0.63369 0.593921
vn 0.793347 -0.602977 0.083782
vn 0.743005 -0.070332 0.66558
vn -0.0 1.0 0.0
vn 0.0 1.0 0.0
vn 0.0 1.0 0.0
vn 0.0 1.0 0.0
vn 0.0 1.0 0.0
vn 0.0 1.0 0.0
vn -0.982854 -0.184307 -0.005308
vn -0.736517 -0.070439 -0.672741
vn -0.917468 -0.397516 0.015253
vn -0.736517 -0.070439 -0.672741
vn -0.755704 -0.003912 -0.654902
vn -0.995494 -0.094718 -0.004577
vn 0.000078 -0.53195 0.846776
vn -0.484632 -0.687605 0.540677
vn 0.484725 -0.687617 0.540578
vn -0.669026 -0.682398 0.294511
vn 0.0 -0.998036 0.062642
vn 0.669099 -0.682359 0.294436
vn 0.982854 -0.184307 -0.005308
vn 0.91749 -0.397465 0.01525
vn 0.736658 -0.070451 -0.672586
vn 0.995494 -0.094716 -0.004576
vn 0.755848 -0.003911 -0.654735
vn 0.736658 -0.070451 -0.672586
vn -0.982854 -0.184307 -0.005308
vn -0.793298 -0.60304 0.083793
vn -0.742866 -0.07032 0.665737
vn -0.793298 -0.60304 0.083793
vn -0.495574 -0.633679 0.594018
vn -0.742866 -0.07032 0.665737
vn 0.405123 0.871076 -0.277673
vn 0.315565 0.934897 -0.162438
vn 0.363326 0.901231 -0.236172
vn 0.315565 0.934897 -0.162438
vn 0.32865 0.913705 -0.239022
vn 0.363326 0.901231 -0.236172
vn 0.449532 0.817504 -0.360011
vn 0.405123 0.871076 -0.277673
vn 0.449235 0.813891 -0.368469
vn 0.405123 0.871076 -0.277673
vn 0.363326 0.901231 -0.236172
vn 0.449235 0.813891 -0.368469
vn 0.071035 -0.151316 0.98593
vn 0.252781 -0.181986 0.950254
vn 0.160381 -0.18134 0.970254
vn 0.255489 -0.177373 0.950402
vn 0.160381 -0.18134 0.970254
vn 0.252781 -0.181986 0.950254
vn -0.010207 -0.087966 0.996071
vn 0.071035 -0.151316 0.98593
vn -0.019492 -0.131698 0.991098
vn 0.160381 -0.18134 0.970254
vn -0.019492 -0.131698 0.991098
vn 0.071035 -0.151316 0.98593
vn -0.071035 -0.151316 0.98593
vn -0.160381 -0.18134 0.970254
vn -0.252781 -0.181986 0.950254
vn -0.255489 -0.177373 0.950402
vn -0.252781 -0.181986 0.950254
vn -0.160381 -0.18134 0.970254
vn 0.010207 -0.087966 0.996071
vn 0.019492 -0.131698 0.991098
vn -0.071035 -0.151316 0.98593
vn -0.160381 -0.18134 0.970254
vn -0.071035 -0.151316 0.98593
vn 0.019492 -0.131698 0.991098

# Object_1, 98 grouped triangles

usemtl floating
o Object_1
g Object_1

f 1/1/1 2/2/2 3/3/3
f 2/4/4 4/5/5 3/6/6
f 4/7/7 6/8/8 3/9/9
f 3/10/10 6/11/11 5/12/12
f 7/13/13 8/14/14 1/15/15
f 8/16/16 2/17/17 1/18/18
f 9/19/19 10/20/20 8/21/21
f 2/22/22 8/23/23 10/24/24
f 12/25/25 11/26/26 4/27/27
f 6/28/28 4/29/29 11/30/30
f 10/31/31 12/32/32 2/33/33
f 4/34/34 2/35/35 12/36/36
f 7/37/37 1/38/38 13/39/39
f 1/40/40 3/41/41 13/42/42
f 3/43/43 5/44/44 13/45/45
f 10/46/46 9/47/47 14/48/48
f 11/49/49 12/50/50 14/51/51
f 12/52/52 10/53/53 14/54/54
f 15/55/55 17/56/56 16/57/57
f 17/58/58 18/59/59 16/60/60
f 20/61/61 16/62/62 19/63/63
f 16/64/64 18/65/65 19/66/66
f 15/67/67 16/68/68 7/69/69
f 16/70/70 8/71/71 7/72/72
f 15/73/73 7/74/74 13/75/75
f 17/76/76 15/77/77 13/78/78
f 17/79/79 13/80/80 5/81/81
f 18/82/82 17/83/83 6/84/84
f 17/85/85 5/86/86 6/87/87
f 18/88/88 6/89/89 19/90/90
f 19/91/91 6/92/92 11/93/93
f 14/94/94 19/95/95 11/96/96
f 20/97/97 9/98/98 16/99/99
f 9/100/100 8/101/101 16/102/102
f 14/103/103 9/104/104 20/105/105
f 14/106/106 20/107/107 19/108/108
f 24/109/109 23/110/110 22/111/111
f 21/112/112 22/113/113 23/114/114
f 27/115/115 28/116/116 21/117/117
f 28/118/118 22/119/119 21/120/120
f 22/121/121 26/122/122 24/123/123
f 27/124/124 21/125/125 25/126/126
f 25/127/127 21/128/128 23/129/129
f 22/130/130 28/131/131 26/132/132
f 33/133/133 34/134/134 31/135/135
f 34/136/136 32/137/137 31/138/138
f 29/139/139 30/140/140 33/141/141
f 30/142/142 34/143/143 33/144/144
f 38/145/145 37/146/146 36/147/147
f 35/148/148 36/149/149 37/150/150
f 39/151/151 40/152/152 41/153/153
f 40/154/154 42/155/155 41/156/156
f 41/157/157 42/158/158 35/159/159
f 42/160/160 36/161/161 35/162/162
f 40/163/163 38/164/164 42/165/165
f 36/166/166 42/167/167 38/168/168
f 39/169/169 41/170/170 37/171/171
f 41/172/172 35/173/173 37/174/174
f 37/175/175 38/176/176 43/177/177
f 38/178/178 44/179/179 43/180/180
f 38/181/181 40/182/182 44/183/183
f 40/184/184 45/185/185 44/186/186
f 39/187/187 46/188/188 40/189/189
f 40/190/190 46/191/191 45/192/192
f 37/193/193 43/194/194 39/195/195
f 39/196/196 43/197/197 46/198/198
f 43/199/199 44/200/200 47/201/201
f 44/202/202 48/203/203 47/204/204
f 45/205/205 49/206/206 44/207/207
f 44/208/208 49/209/209 48/210/210
f 45/211/211 46/212/212 49/213/213
f 46/214/214 50/215/215 49/216/216
f 43/217/217 47/218/218 46/219/219
f 46/220/220 47/221/221 50/222/222
f 54/223/223 53/224/224 52/225/225
f 51/226/226 52/227/227 53/228/228
f 53/229/229 54/230/230 55/231/231
f 54/232/232 56/233/233 55/234/234
f 55/235/235 56/236/236 57/237/237
f 56/238/238 58/239/239 57/240/240
f 51/241/241 57/242/242 52/243/243
f 57/244/244 58/245/245 52/246/246
f 54/247/247 52/248/248 56/249/249
f 52/250/250 58/251/251 56/252/252
f 55/253/253 57/254/254 53/255/255
f 57/256/256 51/257/257 53/258/258
f 63/259/259 61/260/260 64/261/261
f 61/262/262 62/263/263 64/264/264
f 59/265/265 63/266/266 60/267/267
f 63/268/268 64/269/269 60/270/270
f 68/271/271 67/272/272 66/273/273
f 65/274/274 66/275/275 67/276/276
f 69/277/277 68/278/278 70/279/279
f 66/280/280 70/281/281 68/282/282
f 74/283/283 72/284/284 73/285/285
f 71/286/286 73/287/287 72/288/288
f 75/289/289 76/290/290 74/291/291
f 72/292/292 74/293/293 76/294/294
